<mxfile host="app.diagrams.net" agent="Mozilla/5.0 (Windows NT 10.0; Win64; x64) AppleWebKit/537.36 (KHTML, like Gecko) Chrome/134.0.0.0 Safari/537.36" version="26.1.0">
  <diagram id="C5RBs43oDa-KdzZeNtuy" name="Page-1">
    <mxGraphModel dx="3200" dy="1314" grid="1" gridSize="10" guides="1" tooltips="1" connect="1" arrows="1" fold="1" page="1" pageScale="1" pageWidth="827" pageHeight="1169" math="0" shadow="0">
      <root>
        <mxCell id="WIyWlLk6GJQsqaUBKTNV-0" />
        <mxCell id="WIyWlLk6GJQsqaUBKTNV-1" parent="WIyWlLk6GJQsqaUBKTNV-0" />
        <mxCell id="RXg9fFN52jrWRGp2dkTv-61" value="DIAGRAMA DE COMPONENTES - ORGANIZADOR DIGITAL" style="text;html=1;align=center;verticalAlign=middle;whiteSpace=wrap;rounded=0;fontSize=22;" parent="WIyWlLk6GJQsqaUBKTNV-1" vertex="1">
          <mxGeometry x="926" y="410" width="380" height="30" as="geometry" />
        </mxCell>
        <mxCell id="cwTOPx6Zc4xETRU_-IwT-5" value="Interfaz de Usuario" style="whiteSpace=wrap;strokeWidth=2;" vertex="1" parent="WIyWlLk6GJQsqaUBKTNV-1">
          <mxGeometry x="1107" y="510" width="197" height="54" as="geometry" />
        </mxCell>
        <mxCell id="cwTOPx6Zc4xETRU_-IwT-9" value="Gestor de Usuarios" style="whiteSpace=wrap;strokeWidth=2;" vertex="1" parent="WIyWlLk6GJQsqaUBKTNV-1">
          <mxGeometry x="1239" y="651" width="194" height="54" as="geometry" />
        </mxCell>
        <mxCell id="cwTOPx6Zc4xETRU_-IwT-11" value="Sistema de Notificaciones" style="whiteSpace=wrap;strokeWidth=2;" vertex="1" parent="WIyWlLk6GJQsqaUBKTNV-1">
          <mxGeometry x="552" y="804" width="244" height="54" as="geometry" />
        </mxCell>
        <mxCell id="cwTOPx6Zc4xETRU_-IwT-12" value="Módulo de Seguridad y Autenticación" style="whiteSpace=wrap;strokeWidth=2;" vertex="1" parent="WIyWlLk6GJQsqaUBKTNV-1">
          <mxGeometry x="1289" y="792" width="260" height="78" as="geometry" />
        </mxCell>
        <mxCell id="cwTOPx6Zc4xETRU_-IwT-13" value="Gestor de Archivos" style="whiteSpace=wrap;strokeWidth=2;" vertex="1" parent="WIyWlLk6GJQsqaUBKTNV-1">
          <mxGeometry x="727" y="932" width="193" height="54" as="geometry" />
        </mxCell>
        <mxCell id="cwTOPx6Zc4xETRU_-IwT-14" value="Módulo de Respaldo" style="whiteSpace=wrap;strokeWidth=2;" vertex="1" parent="WIyWlLk6GJQsqaUBKTNV-1">
          <mxGeometry x="1089" y="1061" width="202" height="54" as="geometry" />
        </mxCell>
        <mxCell id="cwTOPx6Zc4xETRU_-IwT-15" value="Sistema de Almacenamiento de Datos" style="whiteSpace=wrap;strokeWidth=2;" vertex="1" parent="WIyWlLk6GJQsqaUBKTNV-1">
          <mxGeometry x="1070" y="920" width="260" height="78" as="geometry" />
        </mxCell>
        <mxCell id="cwTOPx6Zc4xETRU_-IwT-16" value="Base de Datos" style="shape=cylinder3;boundedLbl=1;backgroundOutline=1;size=10;strokeWidth=2;whiteSpace=wrap;" vertex="1" parent="WIyWlLk6GJQsqaUBKTNV-1">
          <mxGeometry x="1860" y="1051" width="115" height="75" as="geometry" />
        </mxCell>
        <mxCell id="cwTOPx6Zc4xETRU_-IwT-17" value="Sistema de Archivos" style="shape=cylinder3;boundedLbl=1;backgroundOutline=1;size=10;strokeWidth=2;whiteSpace=wrap;" vertex="1" parent="WIyWlLk6GJQsqaUBKTNV-1">
          <mxGeometry x="170" y="1048" width="157" height="81" as="geometry" />
        </mxCell>
        <mxCell id="cwTOPx6Zc4xETRU_-IwT-18" value="" style="curved=1;startArrow=none;endArrow=block;exitX=0;exitY=0.64;rounded=0;" edge="1" parent="WIyWlLk6GJQsqaUBKTNV-1" source="cwTOPx6Zc4xETRU_-IwT-5">
          <mxGeometry relative="1" as="geometry">
            <Array as="points">
              <mxPoint x="507" y="589" />
            </Array>
            <mxPoint x="510" y="635" as="targetPoint" />
          </mxGeometry>
        </mxCell>
        <mxCell id="cwTOPx6Zc4xETRU_-IwT-19" value="" style="curved=1;startArrow=none;endArrow=block;exitX=0;exitY=0.76;rounded=0;" edge="1" parent="WIyWlLk6GJQsqaUBKTNV-1" source="cwTOPx6Zc4xETRU_-IwT-5">
          <mxGeometry relative="1" as="geometry">
            <Array as="points">
              <mxPoint x="841" y="589" />
            </Array>
            <mxPoint x="840" y="635" as="targetPoint" />
          </mxGeometry>
        </mxCell>
        <mxCell id="cwTOPx6Zc4xETRU_-IwT-20" value="" style="curved=1;startArrow=none;endArrow=block;exitX=0.18;exitY=1;rounded=0;" edge="1" parent="WIyWlLk6GJQsqaUBKTNV-1" source="cwTOPx6Zc4xETRU_-IwT-5">
          <mxGeometry relative="1" as="geometry">
            <Array as="points">
              <mxPoint x="1084" y="589" />
            </Array>
            <mxPoint x="1080" y="635" as="targetPoint" />
          </mxGeometry>
        </mxCell>
        <mxCell id="cwTOPx6Zc4xETRU_-IwT-21" value="" style="curved=1;startArrow=none;endArrow=block;exitX=0.85;exitY=1;entryX=0.5;entryY=0;rounded=0;" edge="1" parent="WIyWlLk6GJQsqaUBKTNV-1" source="cwTOPx6Zc4xETRU_-IwT-5" target="cwTOPx6Zc4xETRU_-IwT-9">
          <mxGeometry relative="1" as="geometry">
            <Array as="points">
              <mxPoint x="1337" y="589" />
            </Array>
          </mxGeometry>
        </mxCell>
        <mxCell id="cwTOPx6Zc4xETRU_-IwT-24" value="" style="curved=1;startArrow=none;endArrow=block;exitX=0.28;exitY=1;entryX=1;entryY=0.02;rounded=0;" edge="1" parent="WIyWlLk6GJQsqaUBKTNV-1" target="cwTOPx6Zc4xETRU_-IwT-11">
          <mxGeometry relative="1" as="geometry">
            <Array as="points">
              <mxPoint x="972" y="767" />
            </Array>
            <mxPoint x="1037.0800000000004" y="705" as="sourcePoint" />
          </mxGeometry>
        </mxCell>
        <mxCell id="cwTOPx6Zc4xETRU_-IwT-25" value="" style="curved=1;startArrow=none;endArrow=block;exitX=0.52;exitY=1;entryX=0;entryY=0.34;rounded=0;" edge="1" parent="WIyWlLk6GJQsqaUBKTNV-1" target="cwTOPx6Zc4xETRU_-IwT-15">
          <mxGeometry relative="1" as="geometry">
            <Array as="points">
              <mxPoint x="517" y="742" />
              <mxPoint x="517" y="895" />
            </Array>
            <mxPoint x="510.5999999999999" y="705" as="sourcePoint" />
          </mxGeometry>
        </mxCell>
        <mxCell id="cwTOPx6Zc4xETRU_-IwT-26" value="" style="curved=1;startArrow=none;endArrow=block;exitX=0.47;exitY=1;entryX=0;entryY=0.21;rounded=0;" edge="1" parent="WIyWlLk6GJQsqaUBKTNV-1" target="cwTOPx6Zc4xETRU_-IwT-15">
          <mxGeometry relative="1" as="geometry">
            <Array as="points">
              <mxPoint x="831" y="742" />
              <mxPoint x="831" y="895" />
            </Array>
            <mxPoint x="835.7799999999997" y="705" as="sourcePoint" />
          </mxGeometry>
        </mxCell>
        <mxCell id="cwTOPx6Zc4xETRU_-IwT-27" value="" style="curved=1;startArrow=none;endArrow=block;exitX=0.73;exitY=1;entryX=0.5;entryY=0;rounded=0;" edge="1" parent="WIyWlLk6GJQsqaUBKTNV-1" target="cwTOPx6Zc4xETRU_-IwT-15">
          <mxGeometry relative="1" as="geometry">
            <Array as="points">
              <mxPoint x="1200" y="742" />
            </Array>
            <mxPoint x="1132.0299999999997" y="705" as="sourcePoint" />
          </mxGeometry>
        </mxCell>
        <mxCell id="cwTOPx6Zc4xETRU_-IwT-28" value="" style="curved=1;startArrow=none;endArrow=block;exitX=0.25;exitY=1;entryX=0.55;entryY=0;rounded=0;" edge="1" parent="WIyWlLk6GJQsqaUBKTNV-1" source="cwTOPx6Zc4xETRU_-IwT-9" target="cwTOPx6Zc4xETRU_-IwT-15">
          <mxGeometry relative="1" as="geometry">
            <Array as="points">
              <mxPoint x="1220" y="742" />
              <mxPoint x="1220" y="895" />
            </Array>
          </mxGeometry>
        </mxCell>
        <mxCell id="cwTOPx6Zc4xETRU_-IwT-30" value="" style="curved=1;startArrow=none;endArrow=block;exitX=0.74;exitY=1;entryX=0.76;entryY=0;rounded=0;" edge="1" parent="WIyWlLk6GJQsqaUBKTNV-1" target="cwTOPx6Zc4xETRU_-IwT-13">
          <mxGeometry relative="1" as="geometry">
            <Array as="points">
              <mxPoint x="940" y="742" />
              <mxPoint x="940" y="895" />
            </Array>
            <mxPoint x="882.7599999999998" y="705" as="sourcePoint" />
          </mxGeometry>
        </mxCell>
        <mxCell id="cwTOPx6Zc4xETRU_-IwT-31" value="" style="curved=1;startArrow=none;endArrow=block;exitX=0;exitY=0.8;entryX=1;entryY=0.16;rounded=0;" edge="1" parent="WIyWlLk6GJQsqaUBKTNV-1" source="cwTOPx6Zc4xETRU_-IwT-13" target="cwTOPx6Zc4xETRU_-IwT-17">
          <mxGeometry relative="1" as="geometry">
            <Array as="points">
              <mxPoint x="438" y="1023" />
            </Array>
          </mxGeometry>
        </mxCell>
        <mxCell id="cwTOPx6Zc4xETRU_-IwT-32" value="" style="curved=1;startArrow=none;endArrow=block;exitX=0;exitY=0.8;entryX=0;entryY=0.45;rounded=0;" edge="1" parent="WIyWlLk6GJQsqaUBKTNV-1" source="cwTOPx6Zc4xETRU_-IwT-15" target="cwTOPx6Zc4xETRU_-IwT-16">
          <mxGeometry relative="1" as="geometry">
            <Array as="points">
              <mxPoint x="844" y="1023" />
            </Array>
          </mxGeometry>
        </mxCell>
        <mxCell id="cwTOPx6Zc4xETRU_-IwT-33" value="" style="curved=1;startArrow=none;endArrow=block;exitX=0.68;exitY=1;entryX=0.5;entryY=0;rounded=0;" edge="1" parent="WIyWlLk6GJQsqaUBKTNV-1" source="cwTOPx6Zc4xETRU_-IwT-9" target="cwTOPx6Zc4xETRU_-IwT-12">
          <mxGeometry relative="1" as="geometry">
            <Array as="points">
              <mxPoint x="1419" y="742" />
            </Array>
          </mxGeometry>
        </mxCell>
        <mxCell id="cwTOPx6Zc4xETRU_-IwT-34" value="" style="curved=1;startArrow=none;endArrow=block;exitX=1;exitY=0.7;entryX=1;entryY=0.28;rounded=0;" edge="1" parent="WIyWlLk6GJQsqaUBKTNV-1" source="cwTOPx6Zc4xETRU_-IwT-15" target="cwTOPx6Zc4xETRU_-IwT-14">
          <mxGeometry relative="1" as="geometry">
            <Array as="points">
              <mxPoint x="1723" y="1023" />
            </Array>
          </mxGeometry>
        </mxCell>
        <mxCell id="cwTOPx6Zc4xETRU_-IwT-35" value="" style="curved=1;startArrow=none;endArrow=block;exitX=0.5;exitY=1;entryX=0;entryY=0.17;rounded=0;" edge="1" parent="WIyWlLk6GJQsqaUBKTNV-1" source="cwTOPx6Zc4xETRU_-IwT-13" target="cwTOPx6Zc4xETRU_-IwT-14">
          <mxGeometry relative="1" as="geometry">
            <Array as="points">
              <mxPoint x="824" y="1023" />
            </Array>
          </mxGeometry>
        </mxCell>
        <mxCell id="cwTOPx6Zc4xETRU_-IwT-36" style="rounded=0;orthogonalLoop=1;jettySize=auto;html=1;exitX=0.75;exitY=1;exitDx=0;exitDy=0;entryX=0.115;entryY=0.019;entryDx=0;entryDy=0;entryPerimeter=0;" edge="1" parent="WIyWlLk6GJQsqaUBKTNV-1" target="cwTOPx6Zc4xETRU_-IwT-11">
          <mxGeometry relative="1" as="geometry">
            <mxPoint x="551.9999999999998" y="705" as="sourcePoint" />
          </mxGeometry>
        </mxCell>
        <mxCell id="cwTOPx6Zc4xETRU_-IwT-37" value="Gestor de notas" style="html=1;dropTarget=0;whiteSpace=wrap;" vertex="1" parent="WIyWlLk6GJQsqaUBKTNV-1">
          <mxGeometry x="776" y="637" width="150" height="82" as="geometry" />
        </mxCell>
        <mxCell id="cwTOPx6Zc4xETRU_-IwT-38" value="" style="shape=module;jettyWidth=8;jettyHeight=4;" vertex="1" parent="cwTOPx6Zc4xETRU_-IwT-37">
          <mxGeometry x="1" width="20" height="20" relative="1" as="geometry">
            <mxPoint x="-27" y="7" as="offset" />
          </mxGeometry>
        </mxCell>
        <mxCell id="cwTOPx6Zc4xETRU_-IwT-39" value="Gestor de tareas" style="html=1;dropTarget=0;whiteSpace=wrap;" vertex="1" parent="WIyWlLk6GJQsqaUBKTNV-1">
          <mxGeometry x="440" y="637" width="150" height="82" as="geometry" />
        </mxCell>
        <mxCell id="cwTOPx6Zc4xETRU_-IwT-40" value="" style="shape=module;jettyWidth=8;jettyHeight=4;" vertex="1" parent="cwTOPx6Zc4xETRU_-IwT-39">
          <mxGeometry x="1" width="20" height="20" relative="1" as="geometry">
            <mxPoint x="-27" y="7" as="offset" />
          </mxGeometry>
        </mxCell>
        <mxCell id="cwTOPx6Zc4xETRU_-IwT-41" value="Gestor de Calendario" style="html=1;dropTarget=0;whiteSpace=wrap;" vertex="1" parent="WIyWlLk6GJQsqaUBKTNV-1">
          <mxGeometry x="1000" y="637" width="150" height="82" as="geometry" />
        </mxCell>
        <mxCell id="cwTOPx6Zc4xETRU_-IwT-42" value="" style="shape=module;jettyWidth=8;jettyHeight=4;" vertex="1" parent="cwTOPx6Zc4xETRU_-IwT-41">
          <mxGeometry x="1" width="20" height="20" relative="1" as="geometry">
            <mxPoint x="-27" y="7" as="offset" />
          </mxGeometry>
        </mxCell>
      </root>
    </mxGraphModel>
  </diagram>
</mxfile>
